<?xml version="1.0" standalone="no"?>
<!DOCTYPE svg PUBLIC "-//W3C//DTD SVG 20010904//EN"
 "http://www.w3.org/TR/2001/REC-SVG-20010904/DTD/svg10.dtd">
<svg version="1.0" xmlns="http://www.w3.org/2000/svg"
 width="500.000000pt" height="500.000000pt" viewBox="0 0 500.000000 500.000000"
 preserveAspectRatio="xMidYMid meet">

<g transform="translate(0.000000,500.000000) scale(0.100000,-0.100000)"
fill="#00844C" stroke="none">
<path d="M2365 4813 c-66 -2 -124 -8 -129 -13 -6 -6 -26 -10 -46 -10 -19 0
-51 -5 -70 -11 -19 -6 -57 -15 -85 -19 -79 -13 -128 -26 -152 -38 -12 -7 -33
-12 -47 -12 -14 0 -26 -4 -26 -10 0 -5 -9 -10 -20 -10 -17 0 -66 -18 -112 -41
-10 -5 -27 -9 -38 -9 -11 0 -20 -4 -20 -8 0 -9 -70 -42 -88 -42 -7 0 -12 -4
-12 -10 0 -5 -6 -10 -14 -10 -13 0 -75 -29 -86 -40 -8 -8 -43 -28 -80 -47 -19
-9 -37 -20 -40 -23 -3 -3 -18 -14 -35 -24 -16 -11 -34 -23 -40 -28 -5 -4 -35
-26 -65 -48 -30 -22 -68 -50 -85 -62 -41 -31 -306 -296 -333 -333 -12 -16 -36
-48 -53 -70 -26 -33 -70 -100 -147 -220 -6 -11 -15 -27 -19 -35 -4 -8 -9 -17
-12 -20 -7 -6 -52 -98 -77 -157 -10 -24 -21 -43 -26 -43 -4 0 -8 -9 -8 -20 0
-20 -2 -27 -33 -88 -9 -19 -17 -45 -17 -58 0 -13 -4 -24 -9 -24 -5 0 -11 -15
-14 -32 -6 -39 -26 -115 -38 -143 -4 -11 -10 -38 -13 -60 -2 -22 -12 -76 -22
-120 -13 -62 -18 -144 -21 -369 -2 -159 0 -292 5 -295 5 -3 14 -40 21 -81 25
-163 56 -291 82 -342 5 -10 9 -26 9 -35 0 -10 7 -27 15 -37 8 -11 15 -30 15
-43 0 -13 5 -23 10 -23 6 0 10 -8 10 -17 0 -15 30 -85 63 -148 6 -11 23 -45
39 -75 33 -62 51 -93 58 -100 3 -3 14 -22 25 -42 11 -21 23 -38 27 -38 5 0 8
-5 8 -10 0 -12 80 -123 92 -128 4 -2 8 -8 8 -13 0 -6 10 -20 23 -32 12 -13 38
-42 57 -66 43 -52 144 -154 201 -201 23 -19 50 -42 60 -51 10 -8 30 -24 44
-35 15 -10 41 -31 58 -46 18 -15 43 -33 57 -40 14 -7 36 -23 50 -36 14 -12 28
-22 33 -22 4 0 31 -15 60 -33 29 -18 70 -41 92 -52 22 -11 41 -23 43 -27 2 -5
14 -8 27 -8 13 0 25 -3 27 -7 4 -10 60 -37 123 -59 28 -9 54 -21 59 -26 6 -4
18 -8 28 -8 10 0 26 -4 36 -9 46 -23 100 -37 219 -60 28 -5 61 -14 72 -20 11
-6 37 -11 58 -11 22 0 44 -5 51 -12 17 -17 667 -17 684 0 7 7 29 12 49 12 21
0 50 5 66 11 15 6 51 15 78 20 120 23 172 38 217 60 10 5 26 9 36 9 10 0 22 4
28 8 5 5 32 17 59 26 63 22 119 49 123 59 2 4 9 7 15 7 11 0 117 50 127 60 4
4 39 24 95 54 11 6 22 14 25 17 3 3 21 14 40 25 19 10 37 21 40 25 3 3 23 18
45 34 22 16 47 36 56 45 8 8 28 24 43 35 59 43 185 162 272 257 26 29 176 224
189 246 6 10 23 40 40 67 49 82 52 87 95 175 82 164 90 182 90 196 0 14 3 22
33 82 9 19 17 42 17 53 0 11 4 27 9 37 10 20 32 104 38 147 2 17 8 39 13 50 5
11 11 43 14 70 3 28 9 82 15 120 13 89 13 447 0 545 -5 41 -12 95 -15 120 -3
25 -9 54 -14 65 -5 11 -11 36 -14 55 -8 57 -31 148 -39 156 -4 4 -7 17 -7 29
0 12 -7 30 -15 41 -8 10 -15 29 -15 41 0 12 -4 25 -10 28 -5 3 -10 13 -10 22
0 16 -8 36 -71 169 -16 33 -29 64 -29 67 0 4 -16 31 -35 61 -19 30 -35 58 -35
61 0 4 -11 21 -25 39 -14 18 -25 36 -25 39 0 14 -92 136 -185 247 -65 76 -308
310 -323 310 -4 0 -19 11 -34 25 -15 14 -30 25 -33 25 -4 0 -13 6 -20 13 -33
29 -45 37 -55 37 -5 0 -10 3 -10 8 0 4 -17 16 -37 27 -21 10 -51 28 -68 40
-16 11 -57 34 -90 50 -33 17 -61 33 -63 38 -2 4 -10 7 -17 7 -8 0 -33 10 -57
23 -24 12 -69 31 -100 42 -32 10 -58 23 -58 27 0 4 -11 8 -25 8 -14 0 -33 4
-43 9 -30 15 -116 41 -138 41 -11 0 -24 4 -30 9 -5 5 -29 11 -54 14 -70 9
-173 28 -195 37 -24 10 -319 17 -490 13z m275 -252 c58 -6 114 -12 125 -15 11
-3 56 -12 100 -22 79 -16 151 -37 190 -53 11 -4 38 -14 60 -21 22 -7 56 -19
75 -27 54 -23 284 -136 290 -143 3 -3 30 -21 60 -40 30 -19 57 -38 58 -42 2
-5 10 -8 17 -8 7 0 15 -4 17 -8 2 -4 21 -21 43 -37 87 -65 260 -238 317 -316
17 -24 35 -45 40 -47 4 -2 8 -10 8 -17 0 -7 3 -15 8 -17 13 -6 100 -150 140
-233 17 -35 51 -111 63 -140 20 -50 59 -173 59 -188 0 -10 4 -25 9 -35 10 -18
32 -120 50 -234 14 -86 32 -355 24 -374 -4 -12 17 -14 135 -14 77 0 147 -3
156 -6 13 -5 16 -22 16 -85 0 -86 -9 -133 -47 -254 -33 -107 -100 -255 -115
-255 -5 0 -8 -5 -8 -11 0 -21 -104 -153 -180 -229 -71 -72 -209 -180 -229
-180 -5 0 -11 -4 -13 -8 -3 -7 -91 -52 -143 -73 -11 -4 -36 -14 -55 -22 -19
-9 -46 -18 -60 -21 -178 -40 -214 -45 -320 -46 -63 0 -151 7 -195 15 -102 20
-255 66 -255 77 0 4 -8 8 -18 8 -22 0 -79 27 -87 41 -4 5 -15 9 -26 9 -10 0
-19 4 -19 9 0 5 -8 11 -17 15 -21 6 -51 25 -71 44 -7 6 -23 17 -34 23 -62 33
-227 204 -293 304 -58 88 -125 214 -125 237 0 8 -4 18 -9 24 -19 18 -51 168
-58 272 l-5 72 -189 0 -189 0 0 -45 c0 -74 38 -324 60 -395 4 -14 16 -52 26
-85 10 -33 33 -89 51 -125 18 -36 33 -71 33 -77 0 -7 4 -13 10 -13 5 0 12 -11
16 -25 3 -14 10 -25 15 -25 5 0 9 -5 9 -11 0 -24 108 -159 202 -251 54 -54
103 -98 108 -98 5 0 15 -6 22 -12 28 -27 87 -68 97 -68 6 0 11 -4 11 -10 0 -5
6 -10 14 -10 8 0 21 -6 28 -13 12 -11 107 -59 153 -77 11 -4 40 -15 65 -25 25
-10 54 -21 65 -25 11 -5 31 -11 45 -14 14 -3 54 -13 90 -22 153 -38 372 -52
538 -35 65 7 128 17 142 21 14 4 59 16 100 25 41 9 84 20 95 24 154 65 155 65
155 28 0 -21 -143 -167 -203 -207 -20 -14 -37 -28 -37 -32 0 -5 -5 -8 -11 -8
-6 0 -25 -10 -42 -23 -47 -33 -68 -45 -109 -64 -21 -10 -38 -21 -38 -25 0 -5
-4 -8 -9 -8 -5 0 -43 -16 -85 -35 -167 -77 -382 -141 -561 -167 -153 -23 -533
-11 -680 21 -99 21 -296 80 -309 92 -6 5 -16 9 -24 9 -8 0 -73 29 -146 65
-139 69 -152 77 -203 112 -17 13 -36 23 -42 23 -6 0 -11 4 -11 9 0 5 -8 12
-18 15 -10 4 -27 14 -38 24 -10 9 -44 36 -75 59 -51 38 -242 222 -279 269 -8
11 -31 39 -50 64 -19 25 -38 47 -42 48 -5 2 -8 9 -8 15 0 7 -11 24 -25 39 -14
15 -25 30 -25 34 0 4 -10 21 -23 38 -38 51 -161 309 -187 391 -7 22 -16 49
-21 60 -29 72 -73 307 -85 458 l-7 87 -142 0 c-171 0 -170 -1 -161 97 18 207
55 330 161 534 5 10 13 19 17 19 5 0 8 5 8 11 0 12 36 62 105 144 54 65 66 77
127 127 23 18 47 39 54 46 7 6 17 12 22 12 6 0 12 4 14 8 5 13 136 92 153 92
8 0 15 3 15 8 0 4 21 15 48 25 26 11 56 23 67 27 19 8 76 25 170 49 104 27
361 23 515 -8 59 -11 186 -57 228 -82 18 -10 40 -19 48 -19 8 0 14 -4 14 -10
0 -5 6 -10 14 -10 8 0 21 -6 28 -12 8 -7 25 -20 40 -28 81 -47 291 -254 307
-303 2 -7 9 -19 16 -27 21 -24 72 -118 95 -175 7 -16 17 -39 23 -50 6 -11 14
-33 18 -50 37 -146 48 -203 54 -287 l7 -98 186 0 187 0 -12 153 c-13 171 -29
259 -68 372 -31 89 -150 315 -167 315 -4 0 -8 6 -8 13 0 27 -170 204 -260 271
-30 23 -56 44 -58 49 -2 4 -9 7 -15 7 -6 0 -18 6 -26 14 -35 31 -245 136 -271
136 -6 0 -18 4 -28 9 -15 8 -76 26 -172 51 -106 27 -199 35 -405 35 -245 0
-315 -9 -505 -62 -30 -8 -63 -19 -72 -24 -21 -11 -52 -12 -61 -2 -9 9 33 53
50 53 7 0 13 4 13 10 0 5 11 12 25 16 14 3 25 10 25 15 0 5 9 9 19 9 11 0 21
4 23 8 3 9 129 72 142 72 3 0 25 9 49 19 185 85 494 128 754 105 81 -7 157
-15 168 -18 11 -3 52 -13 90 -22 71 -16 170 -49 260 -87 74 -32 251 -123 265
-137 3 -3 32 -25 65 -50 33 -24 65 -49 71 -55 6 -5 33 -31 60 -56 83 -78 224
-244 224 -265 0 -3 10 -20 23 -37 29 -42 97 -176 97 -193 0 -8 4 -14 8 -14 4
0 16 -26 26 -57 10 -32 22 -67 27 -78 16 -39 51 -196 64 -290 3 -22 8 -95 12
-162 l5 -123 189 0 189 0 0 68 c0 130 -31 390 -61 507 -21 79 -43 150 -51 160
-4 5 -8 16 -8 25 0 26 -133 275 -160 300 -3 3 -19 23 -35 45 -81 109 -180 206
-381 375 -41 34 -191 132 -239 155 -22 11 -41 23 -43 28 -2 4 -9 7 -16 7 -7 0
-36 11 -64 25 -29 14 -58 25 -65 25 -7 0 -17 4 -23 8 -5 4 -36 16 -69 26 -33
10 -71 22 -85 26 -14 5 -56 16 -95 25 -38 8 -79 18 -90 21 -35 9 -154 23 -312
35 -209 16 -430 -1 -605 -47 -38 -9 -71 -14 -75 -10 -17 17 102 82 212 116 22
7 49 16 60 21 84 32 355 88 435 90 30 0 78 5 105 9 54 9 189 6 355 -9z"/>
</g>
</svg>
